<svg width="27" height="27" viewBox="0 0 27 27" fill="none" xmlns="http://www.w3.org/2000/svg">
<mask id="path-1-inside-1" fill="white">
<path fill-rule="evenodd" clip-rule="evenodd" d="M13.5 27C20.9558 27 27 20.9558 27 13.5C27 6.04416 20.9558 0 13.5 0C6.04416 0 0 6.04416 0 13.5C0 20.9558 6.04416 27 13.5 27ZM19.7088 10.7054C20.0984 10.314 20.0969 9.6808 19.7054 9.29121C19.314 8.90162 18.6808 8.90313 18.2912 9.29458L11.9988 15.6171L8.67267 12.5934C8.26402 12.2219 7.63157 12.252 7.26006 12.6607C6.88855 13.0693 6.91867 13.7018 7.32733 14.0733L11.3607 17.7399C11.7563 18.0996 12.3649 18.0844 12.7421 17.7054L19.7088 10.7054Z"/>
</mask>
<path d="M19.7054 9.29121L21.1163 7.87362L21.1162 7.87362L19.7054 9.29121ZM19.7088 10.7054L21.1264 12.1163L21.1264 12.1163L19.7088 10.7054ZM18.2912 9.29458L16.8736 7.88375L16.8736 7.88375L18.2912 9.29458ZM11.9988 15.6171L10.6534 17.097L12.0679 18.3829L13.4164 17.028L11.9988 15.6171ZM8.67267 12.5934L10.018 11.1135L10.018 11.1135L8.67267 12.5934ZM7.26006 12.6607L5.78018 11.3153L5.78018 11.3153L7.26006 12.6607ZM7.32733 14.0733L8.67267 12.5934L8.67267 12.5934L7.32733 14.0733ZM11.3607 17.7399L10.0153 19.2198L10.0153 19.2198L11.3607 17.7399ZM12.7421 17.7054L14.1597 19.1163L14.1597 19.1163L12.7421 17.7054ZM25 13.5C25 19.8513 19.8513 25 13.5 25V29C22.0604 29 29 22.0604 29 13.5H25ZM13.5 2C19.8513 2 25 7.14873 25 13.5H29C29 4.93959 22.0604 -2 13.5 -2V2ZM2 13.5C2 7.14873 7.14873 2 13.5 2V-2C4.93959 -2 -2 4.93959 -2 13.5H2ZM13.5 25C7.14873 25 2 19.8513 2 13.5H-2C-2 22.0604 4.93959 29 13.5 29V25ZM18.2946 10.7088C17.9031 10.3192 17.9016 9.68604 18.2912 9.29458L21.1264 12.1163C22.2952 10.9419 22.2906 9.04239 21.1163 7.87362L18.2946 10.7088ZM19.7088 10.7054C19.3192 11.0969 18.686 11.0984 18.2946 10.7088L21.1162 7.87362C19.9419 6.70485 18.0424 6.70938 16.8736 7.88375L19.7088 10.7054ZM13.4164 17.028L19.7088 10.7054L16.8736 7.88375L10.5812 14.2063L13.4164 17.028ZM7.32733 14.0733L10.6534 17.097L13.3441 14.1372L10.018 11.1135L7.32733 14.0733ZM8.73994 14.006C8.36843 14.4147 7.73598 14.4448 7.32733 14.0733L10.018 11.1135C8.79205 9.99899 6.8947 10.0893 5.78018 11.3153L8.73994 14.006ZM8.67267 12.5934C9.08133 12.9649 9.11145 13.5973 8.73994 14.006L5.78018 11.3153C4.66566 12.5413 4.75601 14.4386 5.98198 15.5532L8.67267 12.5934ZM12.706 16.2601L8.67267 12.5934L5.98198 15.5532L10.0153 19.2198L12.706 16.2601ZM11.3245 16.2946C11.7017 15.9156 12.3103 15.9004 12.706 16.2601L10.0153 19.2198C11.2023 20.2989 13.0281 20.2533 14.1597 19.1163L11.3245 16.2946ZM18.2912 9.29458L11.3245 16.2946L14.1597 19.1163L21.1264 12.1163L18.2912 9.29458Z" fill="black" mask="url(#path-1-inside-1)"/>
</svg>
