<svg width="42" height="36" viewBox="0 0 42 36" fill="none" xmlns="http://www.w3.org/2000/svg">
<path d="M36.3131 17.8707C37.3461 17.6201 38.2032 17.2371 38.8784 16.7182C39.8568 15.9662 40.3908 14.9754 40.5428 13.8757C40.8331 11.7758 39.7229 9.4218 38.2413 7.45698C36.7277 5.4498 34.6513 3.61292 32.6164 2.52818C31.5998 1.98631 30.5404 1.6036 29.5304 1.51686C28.7726 1.45178 28.009 1.55236 27.3278 1.9084C25.5826 1.06677 23.4622 0.571585 21.315 0.50719C18.7267 0.429563 15.9957 0.975805 13.7694 2.41016C13.6719 2.30075 13.5634 2.2007 13.444 2.11108C13.0448 1.81149 12.5822 1.67125 12.1273 1.628C11.2465 1.54423 10.251 1.80879 9.29794 2.21845C7.36398 3.04971 5.15513 4.6752 3.44826 6.57901C1.77039 8.45048 0.39283 10.7995 0.506557 13.093C0.565457 14.2808 1.02496 15.4077 1.96781 16.3673C2.82351 17.2382 4.04208 17.937 5.63617 18.4567C5.08997 22.2594 5.07571 26.1713 6.98041 29.2222C9.10585 32.6266 13.3808 34.6215 20.778 34.6215C28.1664 34.6215 32.4654 32.71 34.6753 29.3595C36.7682 26.1864 36.773 22.005 36.3131 17.8707ZM11.938 3.61902C12.1045 3.63484 12.1908 3.67496 12.233 3.70327C11.8893 4.07839 11.5332 4.51899 11.1754 5.00582C10.472 5.96279 9.72857 7.14415 9.02187 8.46118C7.76099 10.811 6.58953 13.6441 5.98207 16.4624C4.74784 16.0274 3.92377 15.5044 3.39442 14.9656C2.79818 14.3588 2.53895 13.6967 2.5041 12.9939C2.43033 11.5061 3.36538 9.6675 4.9374 7.9141C6.48053 6.19292 8.45917 4.7559 10.0877 4.05591C10.916 3.6999 11.5455 3.58169 11.938 3.61902ZM15.3178 15.1216C15.3178 15.3977 15.5417 15.6216 15.8178 15.6216H16.8178C17.094 15.6216 17.3178 15.3977 17.3178 15.1216V14.1216C17.3178 13.8454 17.094 13.6216 16.8178 13.6216H15.8178C15.5417 13.6216 15.3178 13.8454 15.3178 14.1216V15.1216ZM23.3178 15.1216C23.3178 15.3977 23.5417 15.6216 23.8178 15.6216H24.8178C25.094 15.6216 25.3178 15.3977 25.3178 15.1216V14.1216C25.3178 13.8454 25.094 13.6216 24.8178 13.6216H23.8178C23.5417 13.6216 23.3178 13.8454 23.3178 14.1216V15.1216ZM14.3781 4.42146C16.2412 3.02403 18.7486 2.43112 21.2551 2.50629C23.7666 2.58162 26.1414 3.32419 27.6968 4.43521C30.8952 6.71984 33.5807 11.753 34.2849 17.7383C34.7846 21.986 34.7259 25.6503 33.0058 28.2583C31.3929 30.7036 28.105 32.5049 21.4391 32.616V27.3587C21.77 27.2146 22.0755 26.9958 22.3289 26.7032L24.4463 24.2582C25.8485 22.6391 24.6984 20.1216 22.5565 20.1216H18.3217C16.1798 20.1216 15.0297 22.6391 16.4319 24.2582L18.5493 26.7032C18.8027 26.9958 19.1083 27.2146 19.4391 27.3587V32.5975C13.2396 32.37 10.1648 30.5462 8.67693 28.163C7.03143 25.5273 7.08478 21.8637 7.76442 17.7858C8.24114 14.9255 9.44306 11.9062 10.7842 9.40682C11.4525 8.16136 12.1466 7.06149 12.7869 6.19033C13.4398 5.30202 13.9959 4.7081 14.3781 4.42146ZM37.6596 15.1324C37.2857 15.4198 36.7587 15.6823 36.0313 15.8786C35.1202 10.754 32.8307 6.2332 29.8283 3.58043C30.3771 3.6962 31.002 3.93404 31.6756 4.29309C33.4219 5.22397 35.283 6.85585 36.6444 8.66116C38.0376 10.5087 38.7401 12.3111 38.5616 13.6018C38.4793 14.1973 38.2086 14.7105 37.6596 15.1324ZM20.0611 25.3938L17.9438 22.9489C17.6633 22.6251 17.8933 22.1216 18.3217 22.1216H22.5565C22.9849 22.1216 23.2149 22.6251 22.9345 22.9489L20.8171 25.3938C20.6177 25.6241 20.2605 25.6241 20.0611 25.3938Z" stroke="black" stroke-linejoin="round"/>
</svg>
