<svg width="41" height="35" viewBox="0 0 41 35" fill="none" xmlns="http://www.w3.org/2000/svg">
<path d="M16.8178 15.1216H15.8178V14.1216H16.8178V15.1216Z" stroke="black"/>
<path d="M24.8178 15.1216H23.8178V14.1216H24.8178V15.1216Z" stroke="black"/>
<path fill-rule="evenodd" clip-rule="evenodd" d="M21.3001 1.00697C23.4837 1.07246 25.6292 1.59738 27.3455 2.47545C27.9718 2.07518 28.7144 1.94863 29.4876 2.01502C30.4076 2.09404 31.4002 2.44652 32.3812 2.96941C34.3439 4.01568 36.3665 5.80131 37.8421 7.75802C39.3017 9.69359 40.3098 11.9096 40.0475 13.8072C39.9129 14.7809 39.4447 15.6523 38.5737 16.3217C37.8798 16.855 36.9492 17.2463 35.7646 17.4791L35.7746 17.563C36.2747 21.8142 36.3041 25.982 34.2579 29.0842C32.1843 32.2282 28.0973 34.1215 20.778 34.1215C13.4543 34.1215 9.39627 32.1477 7.40454 28.9574C5.50829 25.92 5.59233 21.9307 6.21559 17.9666L6.17579 18.101C4.4368 17.5857 3.17197 16.8795 2.32446 16.0169C1.46827 15.1455 1.05883 14.1348 1.00594 13.0682C0.902206 10.9762 2.16908 8.7548 3.82055 6.91278C5.48648 5.05462 7.63778 3.47626 9.49539 2.67782C10.4172 2.28159 11.3212 2.0536 12.08 2.12575C12.4667 2.16252 12.8352 2.2793 13.1439 2.51097C13.3524 2.66753 13.5194 2.8659 13.6433 3.10029C15.8277 1.53441 18.6248 0.926732 21.3001 1.00697ZM14.078 4.02147C16.0559 2.53795 18.6846 1.92898 21.2701 2.00652C23.858 2.08413 26.3347 2.84783 27.9874 4.02834C31.3366 6.42065 34.0668 11.6057 34.7815 17.6799C35.2813 21.9287 35.252 25.7609 33.4231 28.5336C31.6353 31.2442 28.0136 33.0935 20.9391 33.1211V27.0035C21.3175 26.9064 21.6726 26.6972 21.951 26.3758L24.0684 23.9309C25.1901 22.6356 24.27 20.6216 22.5565 20.6216H18.3217C16.6082 20.6216 15.6881 22.6356 16.8099 23.9309L18.9272 26.3758C19.2056 26.6972 19.5607 26.9064 19.9391 27.0035V33.1124C13.3167 32.9666 9.90876 31.0803 8.2528 28.4278C6.50098 25.6218 6.59017 21.7899 7.27122 17.7036C7.75959 14.7735 8.98554 11.7013 10.3436 9.17041C11.0215 7.90706 11.7279 6.78681 12.384 5.8942C13.0464 4.99304 13.6369 4.35231 14.078 4.02147ZM28.5686 3.21461C28.5105 3.17305 28.4514 3.13199 28.3916 3.09145C28.6893 3.00582 29.0263 2.97909 29.402 3.01136C30.1421 3.07491 31.0011 3.36695 31.9108 3.85187C33.7292 4.82121 35.6442 6.50433 37.0436 8.36012C38.459 10.2371 39.2633 12.1773 39.0569 13.6703C38.9572 14.3919 38.6206 15.0245 37.9643 15.5289C37.4327 15.9374 36.6735 16.2749 35.6264 16.487C34.7104 10.6863 32.0084 5.67162 28.5686 3.21461ZM9.46245 8.69759C8.13494 11.1716 6.91465 14.1765 6.3607 17.1124C4.7795 16.6314 3.71525 16.0056 3.03776 15.3161C2.35488 14.621 2.04558 13.8427 2.00472 13.0187C1.92095 11.3295 2.96658 9.36331 4.56512 7.58033C6.14918 5.81349 8.18538 4.32935 9.89028 3.59654C10.7497 3.22715 11.4707 3.07233 11.9853 3.12126C12.2354 3.14504 12.4157 3.21479 12.5436 3.31075C12.6673 3.40361 12.7724 3.54354 12.8389 3.76523L12.8754 3.75428C12.4676 4.16292 12.0277 4.69052 11.5783 5.30195C10.8906 6.23746 10.1595 7.39845 9.46245 8.69759ZM17.5658 23.2762L19.6832 25.7212C20.0819 26.1816 20.7963 26.1816 21.195 25.7212L23.3124 23.2762C23.8733 22.6286 23.4132 21.6216 22.5565 21.6216H18.3217C17.465 21.6216 17.0049 22.6286 17.5658 23.2762Z" stroke="black"/>
</svg>
