<svg width="33" height="36" viewBox="0 0 33 36" fill="none" xmlns="http://www.w3.org/2000/svg">
<path d="M11.5 0C9.56702 0 8 1.56702 8 3.5V6.5C8 8.43298 9.56702 10 11.5 10C13.433 10 15 8.43298 15 6.5V3.5C15 1.56702 13.433 0 11.5 0Z" fill="#C4C4C4"/>
<path d="M0 11.5C0 9.56702 1.56702 8 3.5 8C5.43298 8 7 9.56702 7 11.5V14.5C7 16.433 5.43298 18 3.5 18C1.56702 18 0 16.433 0 14.5V11.5Z" fill="#C4C4C4"/>
<path d="M12.3408 13.7421C14.7421 10.7827 19.2579 10.7827 21.6592 13.7421L31.5807 25.9695C34.7628 29.8912 31.9719 35.75 26.9215 35.75H7.07852C2.02814 35.75 -0.762817 29.8913 2.41934 25.9695L12.3408 13.7421Z" fill="#C4C4C4"/>
<path d="M18 3.5C18 1.56702 19.567 0 21.5 0C23.433 0 25 1.56702 25 3.5V6.5C25 8.43298 23.433 10 21.5 10C19.567 10 18 8.43298 18 6.5V3.5Z" fill="#C4C4C4"/>
<path d="M29.5 8C27.567 8 26 9.56702 26 11.5V14.5C26 16.433 27.567 18 29.5 18C31.433 18 33 16.433 33 14.5V11.5C33 9.56702 31.433 8 29.5 8Z" fill="#C4C4C4"/>
</svg>
