<svg width="29" height="35" viewBox="0 0 29 35" fill="none" xmlns="http://www.w3.org/2000/svg">
<path d="M6 16H23V15H6V16Z" fill="black"/>
<path d="M22 22H7V20H22V22Z" fill="black"/>
<path d="M10 27H19V25H10V27Z" fill="black"/>
<path fill-rule="evenodd" clip-rule="evenodd" d="M17.7712 3C17.7176 2.82925 17.6548 2.66227 17.5832 2.5C17.3921 2.06653 17.1383 1.66662 16.8284 1.31802C16.0783 0.474106 15.0609 0 14 0C12.9391 0 11.9217 0.474106 11.1716 1.31802C10.8617 1.66662 10.6079 2.06653 10.4168 2.5C10.3452 2.66227 10.2824 2.82925 10.2288 3H8C3.58172 3 0 6.58172 0 11V27C0 31.4183 3.58172 35 8 35H21C25.4183 35 29 31.4183 29 27V11C29 6.58172 25.4183 3 21 3H17.7712ZM14 2C13.6031 2 13.1776 2.15507 12.8092 2.5L15.1908 2.5C14.8224 2.15507 14.3969 2 14 2ZM22 5.08296C24.8377 5.55904 27 8.027 27 11V27C27 30.3137 24.3137 33 21 33H8C4.68629 33 2 30.3137 2 27V11C2 8.38756 3.66962 6.16508 6 5.34141V11H22V5.08296ZM8 6V9H20V6H8Z" fill="black"/>
</svg>
