<svg width="31" height="37" viewBox="0 0 31 37" fill="none" xmlns="http://www.w3.org/2000/svg">
<path d="M15 17.5H24H24.5V17V16V15.5H24H7H6.5V16V17V17.5H7H15ZM15 17.5C17.4853 17.5 19.5 19.5147 19.5 22C19.5 24.4853 17.4853 26.5 15 26.5M15 17.5C12.5147 17.5 10.5 19.5147 10.5 22C10.5 24.4853 12.5147 26.5 15 26.5M15 26.5H10H9.5V27V28V28.5H10H21H21.5V28V27V26.5H21H15ZM6.5 12V12.5H7H23H23.5V12V6.7069C25.8084 7.35968 27.5 9.48272 27.5 12V28C27.5 31.0376 25.0376 33.5 22 33.5H9C5.96243 33.5 3.5 31.0376 3.5 28V12C3.5 9.86327 4.71869 8.01015 6.5 7.09956V12ZM19.1247 3.5C19.0981 3.4321 19.0701 3.36484 19.0407 3.29825C18.8295 2.81933 18.548 2.37499 18.2021 1.98584C17.364 1.04294 16.2138 0.5 15 0.5C13.7862 0.5 12.636 1.04294 11.7979 1.98584C11.452 2.37499 11.1705 2.81933 10.9593 3.29825C10.9299 3.36484 10.9019 3.4321 10.8753 3.5H9C4.30558 3.5 0.5 7.30558 0.5 12V28C0.5 32.6944 4.30558 36.5 9 36.5H22C26.6944 36.5 30.5 32.6944 30.5 28V12C30.5 7.30558 26.6944 3.5 22 3.5H19.1247ZM9.5 9.5V7.5H20.5V9.5H9.5ZM16.5 22C16.5 22.8284 15.8284 23.5 15 23.5C14.1716 23.5 13.5 22.8284 13.5 22C13.5 21.1716 14.1716 20.5 15 20.5C15.8284 20.5 16.5 21.1716 16.5 22Z" stroke="black"/>
</svg>
