<svg width="29" height="35" viewBox="0 0 29 35" fill="none" xmlns="http://www.w3.org/2000/svg">
<path d="M17.2942 3.14992L17.4043 3.5H17.7712H21C25.1421 3.5 28.5 6.85786 28.5 11V27C28.5 31.1421 25.1421 34.5 21 34.5H8C3.85787 34.5 0.5 31.1421 0.5 27V11C0.5 6.85786 3.85786 3.5 8 3.5H10.2288H10.5957L10.7058 3.14991C10.7539 2.99662 10.8102 2.84696 10.8743 2.70175C11.0454 2.31373 11.2715 1.95825 11.5453 1.6502C12.2074 0.905269 13.092 0.5 14 0.5C14.908 0.5 15.7926 0.905269 16.4547 1.6502L16.8284 1.31802L16.4547 1.6502C16.7285 1.95825 16.9546 2.31373 17.1257 2.70175C17.1898 2.84696 17.2461 2.99662 17.2942 3.14992ZM12.4675 2.13503L11.5437 3L12.8092 3L15.1908 3L16.4563 3L15.5325 2.13503C15.0762 1.70769 14.53 1.5 14 1.5C13.47 1.5 12.9238 1.70769 12.4675 2.13503ZM22.0827 4.58985L21.5 4.49209V5.08296V10.5H6.5V5.34141V4.63437L5.83338 4.86999C3.30947 5.76207 1.5 8.16908 1.5 11V27C1.5 30.5898 4.41015 33.5 8 33.5H21C24.5899 33.5 27.5 30.5899 27.5 27V11C27.5 7.77876 25.1573 5.10566 22.0827 4.58985ZM7.5 9V9.5H8H20H20.5V9V6V5.5H20H8H7.5V6V9ZM14 23.5C15.3807 23.5 16.5 22.3807 16.5 21C16.5 19.6193 15.3807 18.5 14 18.5C12.6193 18.5 11.5 19.6193 11.5 21C11.5 22.3807 12.6193 23.5 14 23.5ZM17.5 21C17.5 22.933 15.933 24.5 14 24.5C12.067 24.5 10.5 22.933 10.5 21C10.5 19.067 12.067 17.5 14 17.5C15.933 17.5 17.5 19.067 17.5 21Z" stroke="black"/>
</svg>
